<?xml version="1.0" encoding="utf-8"?>
<svg version="1.1" xmlns="http://www.w3.org/2000/svg" viewBox="0 0 420 190">
<style type="text/css">
	.st0{fill:#27509B;}
	.st1{fill:#C4007A;}
	.st2{fill:#36A1A3;}
</style>
    <path class="st0" d="M104.2,54.8c0-4.8,3.9-8.7,8.7-8.7c4.8,0,8.7,3.9,8.7,8.7v53.3H20.8l37-17.5h46.4V54.8z"/>
    <path class="st0" d="M121.7,176.3c0,4.8-3.9,8.7-8.7,8.7c-4.8,0-8.7-3.9-8.7-8.7v-53.6c0-4.8,3.9-8.7,8.7-8.7
        c4.8,0,8.7,3.9,8.7,8.7V176.3z"/>
    <path class="st0" d="M3.3,176.5l0-34.2l17.5-8.3v42.6c0,4.8-3.9,8.8-8.8,8.8C7.2,185.3,3.3,181.4,3.3,176.5z"/>
    <path class="st0" d="M3.3,16.1c0-4.8,3.9-8.8,8.8-8.8c4.8,0,8.8,3.9,8.8,8.8v66.2l-17.5,8.3V6.1z"/>
    <polygon class="st1" points="3.3,90.6 20.8,82.2 20.8,90.6 57.8,90.6 3.3,116.4"/>
    <polygon class="st2" points="20.8,108.1 3.3,116.4 3.3,142.3 20.8,134"/>
    <path class="st0" d="M146.4,96.3c0,40,32.4,72.3,72.3,72.3s72.3-32.4,72.3-72.3s-32.4-72.3-72.3-72.3S146.4,56.3,146.4,96.3z
         M129.5,96.3c0-49.3,40-89.3,89.3-89.3c49.3,0,89.3,40,89.3,89.3c0,49.3-40,89.3-89.3,89.3C169.5,185.6,129.5,145.6,129.5,96.3z"/>
    <path class="st0" d="M315,40c0-4.8,3.9-8.8,8.8-8.8c4.8,0,8.8,3.9,8.8,8.8v65.1c0,4.8-3.9,8.8-8.8,8.8c-4.8,0-8.8-3.9-8.8-8.8V40z"/>
    <path class="st0" d="M394.9,97.7c12.6,8.6,21,23.1,21,39.6c0,26.4-21.4,47.8-47.8,47.8l-0.2,0c0,0-43.6,0-43.8,0
        c-4.8,0-8.7-3.9-8.7-8.7c0-4.8,3.9-8.8,8.8-8.8c0.2,0,43.8,0,43.8,0h0.2c16.8,0,30.4-13.6,30.4-30.4c0-16.8-13.6-30.4-30.4-30.4
        l-0.2,0c0,0-1.4,0-2,0c-4.8,0-8.8-3.9-8.8-8.8c0-4.8,3.9-8.7,8.7-8.8l0.7,0c17.7,0,31.9-14.4,31.9-32.1
        c0-17.7-14.2-31.8-31.9-31.8h-0.7h-41.8c-4.8,0-8.7-3.9-8.7-8.7c0-4.8,3.9-8.8,8.7-8.8h41.8h0.7c27.3,0,49.4,22,49.4,49.3
        C415.9,73.9,407.6,88.7,394.9,97.7z"/>
</svg>
